<svg xmlns="http://www.w3.org/2000/svg">
<symbol id="australia" viewBox="0 0 34 30">
  <defs>
    <mask id="a" x="0" y="0" width="32" height="24">
      <path d="M29 8l-2-1-1-4h-1V0h-1l-1 4-1 1-4-2 1-2V0h-5l-1 3h-1l-2-1-1 1-3 5-6 2v3l3 6v3h2l2-2h3v-2h6l1 1 2 1v1h2l1 3h3l1-1h2l2-3 2-4v-3z"/>
    </mask>
  </defs>
  <path d="M29 8l-2-1-1-4h-1V0h-1l-1 4-1 1-4-2 1-2V0h-5l-1 3h-1l-2-1-1 1-3 5-6 2v3l3 6v3h2l2-2h3v-2h6l1 1 2 1v1h2l1 3h3l1-1h2l2-3 2-4v-3z" mask="url(#a)" transform="translate(1 1)"/>
  <path d="M25 26l2 1h1v1l-1 1h-1l-1-1z"/>
</symbol>
<symbol id="barn" viewBox="0 0 24 24">
  <path d="M.521 23.5H23.5m-10-6h7v6h-7zm-4-.5l7.5-6 7.5 6m-11 .5l7 6m0-6l-7 6m9-8.1v8.1m-11-8.1v8.1m-9.977-17h10.954M1.5 10.5h11"/>
  <path d="M12.5 14.6V7a5.5 5.5 0 1 0-11 0v16.5"/>
</symbol>
<symbol id="stethoscope" viewBox="0 0 24 24">
  <circle cx="20.5" cy="10.5" r="2"/>
  <path d="M4.5 2a2 2 0 0 0-2 2v5c0 2.762 2.238 5 5 5s5-2.238 5-5V4a2 2 0 0 0-2-2m-3 12v7.5a2 2 0 0 0 4 0v-5a2.5 2.5 0 1 1 5 .001V19.5a2 2 0 0 0 4 0v-7"/>
  <path d="M6 2c0 1.5-1.5 1.5-1.5 1.5v-3S6 .5 6 2zm3 0C9 .5 10.5.5 10.5.5v3S9 3.5 9 2z"/>
</symbol>
</svg>
