<svg xmlns="http://www.w3.org/2000/svg">
<symbol id="icon-australia" viewBox="0 0 26 32">
<title>australia</title>
<path class="path1" d="M1.92 10.176c0 0.177-0.143 0.32-0.32 0.32s-0.32-0.143-0.32-0.32c0-0.177 0.143-0.32 0.32-0.32s0.32 0.143 0.32 0.32zM1.92 11.072c0 0.177-0.143 0.32-0.32 0.32s-0.32-0.143-0.32-0.32c0-0.177 0.143-0.32 0.32-0.32s0.32 0.143 0.32 0.32zM1.92 11.968c0 0.177-0.143 0.32-0.32 0.32s-0.32-0.143-0.32-0.32c0-0.177 0.143-0.32 0.32-0.32s0.32 0.143 0.32 0.32zM2.816 10.176c0 0.177-0.143 0.32-0.32 0.32s-0.32-0.143-0.32-0.32c0-0.177 0.143-0.32 0.32-0.32s0.32 0.143 0.32 0.32zM2.816 11.072c0 0.177-0.143 0.32-0.32 0.32s-0.32-0.143-0.32-0.32c0-0.177 0.143-0.32 0.32-0.32s0.32 0.143 0.32 0.32zM2.816 11.968c0 0.177-0.143 0.32-0.32 0.32s-0.32-0.143-0.32-0.32c0-0.177 0.143-0.32 0.32-0.32s0.32 0.143 0.32 0.32zM2.816 12.864c0 0.177-0.143 0.32-0.32 0.32s-0.32-0.143-0.32-0.32c0-0.177 0.143-0.32 0.32-0.32s0.32 0.143 0.32 0.32zM2.816 13.76c0 0.177-0.143 0.32-0.32 0.32s-0.32-0.143-0.32-0.32c0-0.177 0.143-0.32 0.32-0.32s0.32 0.143 0.32 0.32zM3.712 9.28c0 0.177-0.143 0.32-0.32 0.32s-0.32-0.143-0.32-0.32c0-0.177 0.143-0.32 0.32-0.32s0.32 0.143 0.32 0.32zM3.712 10.176c0 0.177-0.143 0.32-0.32 0.32s-0.32-0.143-0.32-0.32c0-0.177 0.143-0.32 0.32-0.32s0.32 0.143 0.32 0.32zM3.712 11.072c0 0.177-0.143 0.32-0.32 0.32s-0.32-0.143-0.32-0.32c0-0.177 0.143-0.32 0.32-0.32s0.32 0.143 0.32 0.32zM3.712 11.968c0 0.177-0.143 0.32-0.32 0.32s-0.32-0.143-0.32-0.32c0-0.177 0.143-0.32 0.32-0.32s0.32 0.143 0.32 0.32zM3.712 12.864c0 0.177-0.143 0.32-0.32 0.32s-0.32-0.143-0.32-0.32c0-0.177 0.143-0.32 0.32-0.32s0.32 0.143 0.32 0.32zM3.712 13.76c0 0.177-0.143 0.32-0.32 0.32s-0.32-0.143-0.32-0.32c0-0.177 0.143-0.32 0.32-0.32s0.32 0.143 0.32 0.32zM3.712 14.656c0 0.177-0.143 0.32-0.32 0.32s-0.32-0.143-0.32-0.32c0 0 0-0 0-0 0-0.177 0.143-0.32 0.32-0.32s0.32 0.143 0.32 0.32c0 0 0 0 0 0zM3.712 15.552c0 0.177-0.143 0.32-0.32 0.32s-0.32-0.143-0.32-0.32c0-0.177 0.143-0.32 0.32-0.32s0.32 0.143 0.32 0.32zM3.712 16.448c0 0.177-0.143 0.32-0.32 0.32s-0.32-0.143-0.32-0.32c0-0.177 0.143-0.32 0.32-0.32s0.32 0.143 0.32 0.32zM4.608 9.28c0 0.177-0.143 0.32-0.32 0.32s-0.32-0.143-0.32-0.32c0-0.177 0.143-0.32 0.32-0.32s0.32 0.143 0.32 0.32zM4.608 10.176c0 0.177-0.143 0.32-0.32 0.32s-0.32-0.143-0.32-0.32c0-0.177 0.143-0.32 0.32-0.32s0.32 0.143 0.32 0.32zM4.608 11.072c0 0.177-0.143 0.32-0.32 0.32s-0.32-0.143-0.32-0.32c0-0.177 0.143-0.32 0.32-0.32s0.32 0.143 0.32 0.32zM4.608 11.968c0 0.177-0.143 0.32-0.32 0.32s-0.32-0.143-0.32-0.32c0-0.177 0.143-0.32 0.32-0.32s0.32 0.143 0.32 0.32zM4.608 12.864c0 0.177-0.143 0.32-0.32 0.32s-0.32-0.143-0.32-0.32c0-0.177 0.143-0.32 0.32-0.32s0.32 0.143 0.32 0.32zM4.608 13.76c0 0.177-0.143 0.32-0.32 0.32s-0.32-0.143-0.32-0.32c0-0.177 0.143-0.32 0.32-0.32s0.32 0.143 0.32 0.32zM4.608 14.656c0 0.177-0.143 0.32-0.32 0.32s-0.32-0.143-0.32-0.32c0 0 0-0 0-0 0-0.177 0.143-0.32 0.32-0.32s0.32 0.143 0.32 0.32c0 0 0 0 0 0zM4.608 15.552c0 0.177-0.143 0.32-0.32 0.32s-0.32-0.143-0.32-0.32c0-0.177 0.143-0.32 0.32-0.32s0.32 0.143 0.32 0.32zM4.608 16.448c0 0.177-0.143 0.32-0.32 0.32s-0.32-0.143-0.32-0.32c0-0.177 0.143-0.32 0.32-0.32s0.32 0.143 0.32 0.32zM4.608 17.344c0 0.177-0.143 0.32-0.32 0.32s-0.32-0.143-0.32-0.32c0-0.177 0.143-0.32 0.32-0.32s0.32 0.143 0.32 0.32zM4.608 18.24c0 0.177-0.143 0.32-0.32 0.32s-0.32-0.143-0.32-0.32c0-0.177 0.143-0.32 0.32-0.32s0.32 0.143 0.32 0.32zM5.504 8.384c0 0.177-0.143 0.32-0.32 0.32s-0.32-0.143-0.32-0.32c0-0.177 0.143-0.32 0.32-0.32s0.32 0.143 0.32 0.32zM5.504 9.28c0 0.177-0.143 0.32-0.32 0.32s-0.32-0.143-0.32-0.32c0-0.177 0.143-0.32 0.32-0.32s0.32 0.143 0.32 0.32zM5.504 10.176c0 0.177-0.143 0.32-0.32 0.32s-0.32-0.143-0.32-0.32c0-0.177 0.143-0.32 0.32-0.32s0.32 0.143 0.32 0.32zM5.504 11.072c0 0.177-0.143 0.32-0.32 0.32s-0.32-0.143-0.32-0.32c0-0.177 0.143-0.32 0.32-0.32s0.32 0.143 0.32 0.32zM5.504 11.968c0 0.177-0.143 0.32-0.32 0.32s-0.32-0.143-0.32-0.32c0-0.177 0.143-0.32 0.32-0.32s0.32 0.143 0.32 0.32zM5.504 12.864c0 0.177-0.143 0.32-0.32 0.32s-0.32-0.143-0.32-0.32c0-0.177 0.143-0.32 0.32-0.32s0.32 0.143 0.32 0.32zM5.504 13.76c0 0.177-0.143 0.32-0.32 0.32s-0.32-0.143-0.32-0.32c0-0.177 0.143-0.32 0.32-0.32s0.32 0.143 0.32 0.32zM5.504 14.656c0 0.177-0.143 0.32-0.32 0.32s-0.32-0.143-0.32-0.32c0 0 0-0 0-0 0-0.177 0.143-0.32 0.32-0.32s0.32 0.143 0.32 0.32c0 0 0 0 0 0zM5.504 15.552c0 0.177-0.143 0.32-0.32 0.32s-0.32-0.143-0.32-0.32c0-0.177 0.143-0.32 0.32-0.32s0.32 0.143 0.32 0.32zM5.504 16.448c0 0.177-0.143 0.32-0.32 0.32s-0.32-0.143-0.32-0.32c0-0.177 0.143-0.32 0.32-0.32s0.32 0.143 0.32 0.32zM5.504 17.344c0 0.177-0.143 0.32-0.32 0.32s-0.32-0.143-0.32-0.32c0-0.177 0.143-0.32 0.32-0.32s0.32 0.143 0.32 0.32zM5.504 18.24c0 0.177-0.143 0.32-0.32 0.32s-0.32-0.143-0.32-0.32c0-0.177 0.143-0.32 0.32-0.32s0.32 0.143 0.32 0.32zM6.4 6.592c0 0.177-0.143 0.32-0.32 0.32s-0.32-0.143-0.32-0.32c0-0.177 0.143-0.32 0.32-0.32s0.32 0.143 0.32 0.32zM6.4 7.488c0 0.177-0.143 0.32-0.32 0.32s-0.32-0.143-0.32-0.32c0-0.177 0.143-0.32 0.32-0.32s0.32 0.143 0.32 0.32zM6.4 8.384c0 0.177-0.143 0.32-0.32 0.32s-0.32-0.143-0.32-0.32c0-0.177 0.143-0.32 0.32-0.32s0.32 0.143 0.32 0.32zM6.4 9.28c0 0.177-0.143 0.32-0.32 0.32s-0.32-0.143-0.32-0.32c0-0.177 0.143-0.32 0.32-0.32s0.32 0.143 0.32 0.32zM6.4 10.176c0 0.177-0.143 0.32-0.32 0.32s-0.32-0.143-0.32-0.32c0-0.177 0.143-0.32 0.32-0.32s0.32 0.143 0.32 0.32zM6.4 11.072c0 0.177-0.143 0.32-0.32 0.32s-0.32-0.143-0.32-0.32c0-0.177 0.143-0.32 0.32-0.32s0.32 0.143 0.32 0.32zM6.4 11.968c0 0.177-0.143 0.32-0.32 0.32s-0.32-0.143-0.32-0.32c0-0.177 0.143-0.32 0.32-0.32s0.32 0.143 0.32 0.32zM6.4 12.864c0 0.177-0.143 0.32-0.32 0.32s-0.32-0.143-0.32-0.32c0-0.177 0.143-0.32 0.32-0.32s0.32 0.143 0.32 0.32zM6.4 13.76c0 0.177-0.143 0.32-0.32 0.32s-0.32-0.143-0.32-0.32c0-0.177 0.143-0.32 0.32-0.32s0.32 0.143 0.32 0.32zM6.4 14.656c0 0.177-0.143 0.32-0.32 0.32s-0.32-0.143-0.32-0.32c0 0 0-0 0-0 0-0.177 0.143-0.32 0.32-0.32s0.32 0.143 0.32 0.32c0 0 0 0 0 0zM6.4 15.552c0 0.177-0.143 0.32-0.32 0.32s-0.32-0.143-0.32-0.32c0-0.177 0.143-0.32 0.32-0.32s0.32 0.143 0.32 0.32zM6.4 16.448c0 0.177-0.143 0.32-0.32 0.32s-0.32-0.143-0.32-0.32c0-0.177 0.143-0.32 0.32-0.32s0.32 0.143 0.32 0.32zM6.4 17.344c0 0.177-0.143 0.32-0.32 0.32s-0.32-0.143-0.32-0.32c0-0.177 0.143-0.32 0.32-0.32s0.32 0.143 0.32 0.32zM7.296 5.696c0 0.177-0.143 0.32-0.32 0.32s-0.32-0.143-0.32-0.32c0-0.177 0.143-0.32 0.32-0.32s0.32 0.143 0.32 0.32zM7.296 6.592c0 0.177-0.143 0.32-0.32 0.32s-0.32-0.143-0.32-0.32c0-0.177 0.143-0.32 0.32-0.32s0.32 0.143 0.32 0.32zM7.296 7.488c0 0.177-0.143 0.32-0.32 0.32s-0.32-0.143-0.32-0.32c0-0.177 0.143-0.32 0.32-0.32s0.32 0.143 0.32 0.32zM7.296 8.384c0 0.177-0.143 0.32-0.32 0.32s-0.32-0.143-0.32-0.32c0-0.177 0.143-0.32 0.32-0.32s0.32 0.143 0.32 0.32zM7.296 9.28c0 0.177-0.143 0.32-0.32 0.32s-0.32-0.143-0.32-0.32c0-0.177 0.143-0.32 0.32-0.32s0.32 0.143 0.32 0.32zM7.296 10.176c0 0.177-0.143 0.32-0.32 0.32s-0.32-0.143-0.32-0.32c0-0.177 0.143-0.32 0.32-0.32s0.32 0.143 0.32 0.32zM7.296 11.072c0 0.177-0.143 0.32-0.32 0.32s-0.32-0.143-0.32-0.32c0-0.177 0.143-0.32 0.32-0.32s0.32 0.143 0.32 0.32zM7.296 11.968c0 0.177-0.143 0.32-0.32 0.32s-0.32-0.143-0.32-0.32c0-0.177 0.143-0.32 0.32-0.32s0.32 0.143 0.32 0.32zM7.296 12.864c0 0.177-0.143 0.32-0.32 0.32s-0.32-0.143-0.32-0.32c0-0.177 0.143-0.32 0.32-0.32s0.32 0.143 0.32 0.32zM7.296 13.76c0 0.177-0.143 0.32-0.32 0.32s-0.32-0.143-0.32-0.32c0-0.177 0.143-0.32 0.32-0.32s0.32 0.143 0.32 0.32zM7.296 14.656c0 0.177-0.143 0.32-0.32 0.32s-0.32-0.143-0.32-0.32c0 0 0-0 0-0 0-0.177 0.143-0.32 0.32-0.32s0.32 0.143 0.32 0.32c0 0 0 0 0 0zM7.296 15.552c0 0.177-0.143 0.32-0.32 0.32s-0.32-0.143-0.32-0.32c0-0.177 0.143-0.32 0.32-0.32s0.32 0.143 0.32 0.32zM7.296 16.448c0 0.177-0.143 0.32-0.32 0.32s-0.32-0.143-0.32-0.32c0-0.177 0.143-0.32 0.32-0.32s0.32 0.143 0.32 0.32zM7.296 17.344c0 0.177-0.143 0.32-0.32 0.32s-0.32-0.143-0.32-0.32c0-0.177 0.143-0.32 0.32-0.32s0.32 0.143 0.32 0.32zM8.192 4.8c0 0.177-0.143 0.32-0.32 0.32s-0.32-0.143-0.32-0.32c0-0.177 0.143-0.32 0.32-0.32s0.32 0.143 0.32 0.32zM8.192 5.696c0 0.177-0.143 0.32-0.32 0.32s-0.32-0.143-0.32-0.32c0-0.177 0.143-0.32 0.32-0.32s0.32 0.143 0.32 0.32zM8.192 6.592c0 0.177-0.143 0.32-0.32 0.32s-0.32-0.143-0.32-0.32c0-0.177 0.143-0.32 0.32-0.32s0.32 0.143 0.32 0.32zM8.192 7.488c0 0.177-0.143 0.32-0.32 0.32s-0.32-0.143-0.32-0.32c0-0.177 0.143-0.32 0.32-0.32s0.32 0.143 0.32 0.32zM8.192 8.384c0 0.177-0.143 0.32-0.32 0.32s-0.32-0.143-0.32-0.32c0-0.177 0.143-0.32 0.32-0.32s0.32 0.143 0.32 0.32zM8.192 9.28c0 0.177-0.143 0.32-0.32 0.32s-0.32-0.143-0.32-0.32c0-0.177 0.143-0.32 0.32-0.32s0.32 0.143 0.32 0.32zM8.192 10.176c0 0.177-0.143 0.32-0.32 0.32s-0.32-0.143-0.32-0.32c0-0.177 0.143-0.32 0.32-0.32s0.32 0.143 0.32 0.32zM8.192 11.072c0 0.177-0.143 0.32-0.32 0.32s-0.32-0.143-0.32-0.32c0-0.177 0.143-0.32 0.32-0.32s0.32 0.143 0.32 0.32zM8.192 11.968c0 0.177-0.143 0.32-0.32 0.32s-0.32-0.143-0.32-0.32c0-0.177 0.143-0.32 0.32-0.32s0.32 0.143 0.32 0.32zM8.192 12.864c0 0.177-0.143 0.32-0.32 0.32s-0.32-0.143-0.32-0.32c0-0.177 0.143-0.32 0.32-0.32s0.32 0.143 0.32 0.32zM8.192 13.76c0 0.177-0.143 0.32-0.32 0.32s-0.32-0.143-0.32-0.32c0-0.177 0.143-0.32 0.32-0.32s0.32 0.143 0.32 0.32zM8.192 14.656c0 0.177-0.143 0.32-0.32 0.32s-0.32-0.143-0.32-0.32c0 0 0-0 0-0 0-0.177 0.143-0.32 0.32-0.32s0.32 0.143 0.32 0.32c0 0 0 0 0 0zM8.192 15.552c0 0.177-0.143 0.32-0.32 0.32s-0.32-0.143-0.32-0.32c0-0.177 0.143-0.32 0.32-0.32s0.32 0.143 0.32 0.32zM8.192 16.448c0 0.177-0.143 0.32-0.32 0.32s-0.32-0.143-0.32-0.32c0-0.177 0.143-0.32 0.32-0.32s0.32 0.143 0.32 0.32zM8.192 17.344c0 0.177-0.143 0.32-0.32 0.32s-0.32-0.143-0.32-0.32c0-0.177 0.143-0.32 0.32-0.32s0.32 0.143 0.32 0.32zM9.088 4.8c0 0.177-0.143 0.32-0.32 0.32s-0.32-0.143-0.32-0.32c0-0.177 0.143-0.32 0.32-0.32s0.32 0.143 0.32 0.32zM9.088 5.696c0 0.177-0.143 0.32-0.32 0.32s-0.32-0.143-0.32-0.32c0-0.177 0.143-0.32 0.32-0.32s0.32 0.143 0.32 0.32zM9.088 6.592c0 0.177-0.143 0.32-0.32 0.32s-0.32-0.143-0.32-0.32c0-0.177 0.143-0.32 0.32-0.32s0.32 0.143 0.32 0.32zM9.088 7.488c0 0.177-0.143 0.32-0.32 0.32s-0.32-0.143-0.32-0.32c0-0.177 0.143-0.32 0.32-0.32s0.32 0.143 0.32 0.32zM9.088 8.384c0 0.177-0.143 0.32-0.32 0.32s-0.32-0.143-0.32-0.32c0-0.177 0.143-0.32 0.32-0.32s0.32 0.143 0.32 0.32zM9.088 9.28c0 0.177-0.143 0.32-0.32 0.32s-0.32-0.143-0.32-0.32c0-0.177 0.143-0.32 0.32-0.32s0.32 0.143 0.32 0.32zM9.088 10.176c0 0.177-0.143 0.32-0.32 0.32s-0.32-0.143-0.32-0.32c0-0.177 0.143-0.32 0.32-0.32s0.32 0.143 0.32 0.32zM9.088 11.072c0 0.177-0.143 0.32-0.32 0.32s-0.32-0.143-0.32-0.32c0-0.177 0.143-0.32 0.32-0.32s0.32 0.143 0.32 0.32zM9.088 11.968c0 0.177-0.143 0.32-0.32 0.32s-0.32-0.143-0.32-0.32c0-0.177 0.143-0.32 0.32-0.32s0.32 0.143 0.32 0.32zM9.088 12.864c0 0.177-0.143 0.32-0.32 0.32s-0.32-0.143-0.32-0.32c0-0.177 0.143-0.32 0.32-0.32s0.32 0.143 0.32 0.32zM9.088 13.76c0 0.177-0.143 0.32-0.32 0.32s-0.32-0.143-0.32-0.32c0-0.177 0.143-0.32 0.32-0.32s0.32 0.143 0.32 0.32zM9.088 14.656c0 0.177-0.143 0.32-0.32 0.32s-0.32-0.143-0.32-0.32c0 0 0-0 0-0 0-0.177 0.143-0.32 0.32-0.32s0.32 0.143 0.32 0.32c0 0 0 0 0 0zM9.088 15.552c0 0.177-0.143 0.32-0.32 0.32s-0.32-0.143-0.32-0.32c0-0.177 0.143-0.32 0.32-0.32s0.32 0.143 0.32 0.32zM9.088 16.448c0 0.177-0.143 0.32-0.32 0.32s-0.32-0.143-0.32-0.32c0-0.177 0.143-0.32 0.32-0.32s0.32 0.143 0.32 0.32zM9.984 4.8c0 0.177-0.143 0.32-0.32 0.32s-0.32-0.143-0.32-0.32c0-0.177 0.143-0.32 0.32-0.32s0.32 0.143 0.32 0.32zM9.984 5.696c0 0.177-0.143 0.32-0.32 0.32s-0.32-0.143-0.32-0.32c0-0.177 0.143-0.32 0.32-0.32s0.32 0.143 0.32 0.32zM9.984 6.592c0 0.177-0.143 0.32-0.32 0.32s-0.32-0.143-0.32-0.32c0-0.177 0.143-0.32 0.32-0.32s0.32 0.143 0.32 0.32zM9.984 7.488c0 0.177-0.143 0.32-0.32 0.32s-0.32-0.143-0.32-0.32c0-0.177 0.143-0.32 0.32-0.32s0.32 0.143 0.32 0.32zM9.984 8.384c0 0.177-0.143 0.32-0.32 0.32s-0.32-0.143-0.32-0.32c0-0.177 0.143-0.32 0.32-0.32s0.32 0.143 0.32 0.32zM9.984 9.28c0 0.177-0.143 0.32-0.32 0.32s-0.32-0.143-0.32-0.32c0-0.177 0.143-0.32 0.32-0.32s0.32 0.143 0.32 0.32zM9.984 10.176c0 0.177-0.143 0.32-0.32 0.32s-0.32-0.143-0.32-0.32c0-0.177 0.143-0.32 0.32-0.32s0.32 0.143 0.32 0.32zM9.984 11.072c0 0.177-0.143 0.32-0.32 0.32s-0.32-0.143-0.32-0.32c0-0.177 0.143-0.32 0.32-0.32s0.32 0.143 0.32 0.32zM9.984 11.968c0 0.177-0.143 0.32-0.32 0.32s-0.32-0.143-0.32-0.32c0-0.177 0.143-0.32 0.32-0.32s0.32 0.143 0.32 0.32zM9.984 12.864c0 0.177-0.143 0.32-0.32 0.32s-0.32-0.143-0.32-0.32c0-0.177 0.143-0.32 0.32-0.32s0.32 0.143 0.32 0.32zM9.984 13.76c0 0.177-0.143 0.32-0.32 0.32s-0.32-0.143-0.32-0.32c0-0.177 0.143-0.32 0.32-0.32s0.32 0.143 0.32 0.32zM9.984 14.656c0 0.177-0.143 0.32-0.32 0.32s-0.32-0.143-0.32-0.32c0 0 0-0 0-0 0-0.177 0.143-0.32 0.32-0.32s0.32 0.143 0.32 0.32c0 0 0 0 0 0zM9.984 15.552c0 0.177-0.143 0.32-0.32 0.32s-0.32-0.143-0.32-0.32c0-0.177 0.143-0.32 0.32-0.32s0.32 0.143 0.32 0.32zM10.88 4.8c0 0.177-0.143 0.32-0.32 0.32s-0.32-0.143-0.32-0.32c0-0.177 0.143-0.32 0.32-0.32s0.32 0.143 0.32 0.32zM10.88 5.696c0 0.177-0.143 0.32-0.32 0.32s-0.32-0.143-0.32-0.32c0-0.177 0.143-0.32 0.32-0.32s0.32 0.143 0.32 0.32zM10.88 6.592c0 0.177-0.143 0.32-0.32 0.32s-0.32-0.143-0.32-0.32c0-0.177 0.143-0.32 0.32-0.32s0.32 0.143 0.32 0.32zM10.88 7.488c0 0.177-0.143 0.32-0.32 0.32s-0.32-0.143-0.32-0.32c0-0.177 0.143-0.32 0.32-0.32s0.32 0.143 0.32 0.32zM10.88 8.384c0 0.177-0.143 0.32-0.32 0.32s-0.32-0.143-0.32-0.32c0-0.177 0.143-0.32 0.32-0.32s0.32 0.143 0.32 0.32zM10.88 9.28c0 0.177-0.143 0.32-0.32 0.32s-0.32-0.143-0.32-0.32c0-0.177 0.143-0.32 0.32-0.32s0.32 0.143 0.32 0.32zM10.88 10.176c0 0.177-0.143 0.32-0.32 0.32s-0.32-0.143-0.32-0.32c0-0.177 0.143-0.32 0.32-0.32s0.32 0.143 0.32 0.32zM10.88 11.072c0 0.177-0.143 0.32-0.32 0.32s-0.32-0.143-0.32-0.32c0-0.177 0.143-0.32 0.32-0.32s0.32 0.143 0.32 0.32zM10.88 11.968c0 0.177-0.143 0.32-0.32 0.32s-0.32-0.143-0.32-0.32c0-0.177 0.143-0.32 0.32-0.32s0.32 0.143 0.32 0.32zM10.88 12.864c0 0.177-0.143 0.32-0.32 0.32s-0.32-0.143-0.32-0.32c0-0.177 0.143-0.32 0.32-0.32s0.32 0.143 0.32 0.32zM10.88 13.76c0 0.177-0.143 0.32-0.32 0.32s-0.32-0.143-0.32-0.32c0-0.177 0.143-0.32 0.32-0.32s0.32 0.143 0.32 0.32zM10.88 14.656c0 0.177-0.143 0.32-0.32 0.32s-0.32-0.143-0.32-0.32c0 0 0-0 0-0 0-0.177 0.143-0.32 0.32-0.32s0.32 0.143 0.32 0.32c0 0 0 0 0 0zM10.88 15.552c0 0.177-0.143 0.32-0.32 0.32s-0.32-0.143-0.32-0.32c0-0.177 0.143-0.32 0.32-0.32s0.32 0.143 0.32 0.32zM11.776 3.008c0 0.177-0.143 0.32-0.32 0.32s-0.32-0.143-0.32-0.32c0-0.177 0.143-0.32 0.32-0.32s0.32 0.143 0.32 0.32zM11.776 3.904c0 0.177-0.143 0.32-0.32 0.32s-0.32-0.143-0.32-0.32c0-0.177 0.143-0.32 0.32-0.32s0.32 0.143 0.32 0.32zM11.776 4.8c0 0.177-0.143 0.32-0.32 0.32s-0.32-0.143-0.32-0.32c0-0.177 0.143-0.32 0.32-0.32s0.32 0.143 0.32 0.32zM11.776 5.696c0 0.177-0.143 0.32-0.32 0.32s-0.32-0.143-0.32-0.32c0-0.177 0.143-0.32 0.32-0.32s0.32 0.143 0.32 0.32zM11.776 6.592c0 0.177-0.143 0.32-0.32 0.32s-0.32-0.143-0.32-0.32c0-0.177 0.143-0.32 0.32-0.32s0.32 0.143 0.32 0.32zM11.776 7.488c0 0.177-0.143 0.32-0.32 0.32s-0.32-0.143-0.32-0.32c0-0.177 0.143-0.32 0.32-0.32s0.32 0.143 0.32 0.32zM11.776 8.384c0 0.177-0.143 0.32-0.32 0.32s-0.32-0.143-0.32-0.32c0-0.177 0.143-0.32 0.32-0.32s0.32 0.143 0.32 0.32zM11.776 9.28c0 0.177-0.143 0.32-0.32 0.32s-0.32-0.143-0.32-0.32c0-0.177 0.143-0.32 0.32-0.32s0.32 0.143 0.32 0.32zM11.776 10.176c0 0.177-0.143 0.32-0.32 0.32s-0.32-0.143-0.32-0.32c0-0.177 0.143-0.32 0.32-0.32s0.32 0.143 0.32 0.32zM11.776 11.072c0 0.177-0.143 0.32-0.32 0.32s-0.32-0.143-0.32-0.32c0-0.177 0.143-0.32 0.32-0.32s0.32 0.143 0.32 0.32zM11.776 11.968c0 0.177-0.143 0.32-0.32 0.32s-0.32-0.143-0.32-0.32c0-0.177 0.143-0.32 0.32-0.32s0.32 0.143 0.32 0.32zM11.776 12.864c0 0.177-0.143 0.32-0.32 0.32s-0.32-0.143-0.32-0.32c0-0.177 0.143-0.32 0.32-0.32s0.32 0.143 0.32 0.32zM11.776 13.76c0 0.177-0.143 0.32-0.32 0.32s-0.32-0.143-0.32-0.32c0-0.177 0.143-0.32 0.32-0.32s0.32 0.143 0.32 0.32zM11.776 14.656c0 0.177-0.143 0.32-0.32 0.32s-0.32-0.143-0.32-0.32c0 0 0-0 0-0 0-0.177 0.143-0.32 0.32-0.32s0.32 0.143 0.32 0.32c0 0 0 0 0 0zM11.776 15.552c0 0.177-0.143 0.32-0.32 0.32s-0.32-0.143-0.32-0.32c0-0.177 0.143-0.32 0.32-0.32s0.32 0.143 0.32 0.32zM12.672 2.112c0 0.177-0.143 0.32-0.32 0.32s-0.32-0.143-0.32-0.32c0-0.177 0.143-0.32 0.32-0.32s0.32 0.143 0.32 0.32zM12.672 3.008c0 0.177-0.143 0.32-0.32 0.32s-0.32-0.143-0.32-0.32c0-0.177 0.143-0.32 0.32-0.32s0.32 0.143 0.32 0.32zM12.672 3.904c0 0.177-0.143 0.32-0.32 0.32s-0.32-0.143-0.32-0.32c0-0.177 0.143-0.32 0.32-0.32s0.32 0.143 0.32 0.32zM12.672 4.8c0 0.177-0.143 0.32-0.32 0.32s-0.32-0.143-0.32-0.32c0-0.177 0.143-0.32 0.32-0.32s0.32 0.143 0.32 0.32zM12.672 5.696c0 0.177-0.143 0.32-0.32 0.32s-0.32-0.143-0.32-0.32c0-0.177 0.143-0.32 0.32-0.32s0.32 0.143 0.32 0.32zM12.672 6.592c0 0.177-0.143 0.32-0.32 0.32s-0.32-0.143-0.32-0.32c0-0.177 0.143-0.32 0.32-0.32s0.32 0.143 0.32 0.32zM12.672 7.488c0 0.177-0.143 0.32-0.32 0.32s-0.32-0.143-0.32-0.32c0-0.177 0.143-0.32 0.32-0.32s0.32 0.143 0.32 0.32zM12.672 8.384c0 0.177-0.143 0.32-0.32 0.32s-0.32-0.143-0.32-0.32c0-0.177 0.143-0.32 0.32-0.32s0.32 0.143 0.32 0.32zM12.672 9.28c0 0.177-0.143 0.32-0.32 0.32s-0.32-0.143-0.32-0.32c0-0.177 0.143-0.32 0.32-0.32s0.32 0.143 0.32 0.32zM12.672 10.176c0 0.177-0.143 0.32-0.32 0.32s-0.32-0.143-0.32-0.32c0-0.177 0.143-0.32 0.32-0.32s0.32 0.143 0.32 0.32zM12.672 11.072c0 0.177-0.143 0.32-0.32 0.32s-0.32-0.143-0.32-0.32c0-0.177 0.143-0.32 0.32-0.32s0.32 0.143 0.32 0.32zM12.672 11.968c0 0.177-0.143 0.32-0.32 0.32s-0.32-0.143-0.32-0.32c0-0.177 0.143-0.32 0.32-0.32s0.32 0.143 0.32 0.32zM12.672 12.864c0 0.177-0.143 0.32-0.32 0.32s-0.32-0.143-0.32-0.32c0-0.177 0.143-0.32 0.32-0.32s0.32 0.143 0.32 0.32zM12.672 13.76c0 0.177-0.143 0.32-0.32 0.32s-0.32-0.143-0.32-0.32c0-0.177 0.143-0.32 0.32-0.32s0.32 0.143 0.32 0.32zM12.672 14.656c0 0.177-0.143 0.32-0.32 0.32s-0.32-0.143-0.32-0.32c0 0 0-0 0-0 0-0.177 0.143-0.32 0.32-0.32s0.32 0.143 0.32 0.32c0 0 0 0 0 0zM12.672 15.552c0 0.177-0.143 0.32-0.32 0.32s-0.32-0.143-0.32-0.32c0-0.177 0.143-0.32 0.32-0.32s0.32 0.143 0.32 0.32zM13.568 3.008c0 0.177-0.143 0.32-0.32 0.32s-0.32-0.143-0.32-0.32c0-0.177 0.143-0.32 0.32-0.32s0.32 0.143 0.32 0.32zM13.568 3.904c0 0.177-0.143 0.32-0.32 0.32s-0.32-0.143-0.32-0.32c0-0.177 0.143-0.32 0.32-0.32s0.32 0.143 0.32 0.32zM13.568 4.8c0 0.177-0.143 0.32-0.32 0.32s-0.32-0.143-0.32-0.32c0-0.177 0.143-0.32 0.32-0.32s0.32 0.143 0.32 0.32zM13.568 5.696c0 0.177-0.143 0.32-0.32 0.32s-0.32-0.143-0.32-0.32c0-0.177 0.143-0.32 0.32-0.32s0.32 0.143 0.32 0.32zM13.568 6.592c0 0.177-0.143 0.32-0.32 0.32s-0.32-0.143-0.32-0.32c0-0.177 0.143-0.32 0.32-0.32s0.32 0.143 0.32 0.32zM13.568 7.488c0 0.177-0.143 0.32-0.32 0.32s-0.32-0.143-0.32-0.32c0-0.177 0.143-0.32 0.32-0.32s0.32 0.143 0.32 0.32zM13.568 8.384c0 0.177-0.143 0.32-0.32 0.32s-0.32-0.143-0.32-0.32c0-0.177 0.143-0.32 0.32-0.32s0.32 0.143 0.32 0.32zM13.568 9.28c0 0.177-0.143 0.32-0.32 0.32s-0.32-0.143-0.32-0.32c0-0.177 0.143-0.32 0.32-0.32s0.32 0.143 0.32 0.32zM13.568 10.176c0 0.177-0.143 0.32-0.32 0.32s-0.32-0.143-0.32-0.32c0-0.177 0.143-0.32 0.32-0.32s0.32 0.143 0.32 0.32zM13.568 11.072c0 0.177-0.143 0.32-0.32 0.32s-0.32-0.143-0.32-0.32c0-0.177 0.143-0.32 0.32-0.32s0.32 0.143 0.32 0.32zM13.568 11.968c0 0.177-0.143 0.32-0.32 0.32s-0.32-0.143-0.32-0.32c0-0.177 0.143-0.32 0.32-0.32s0.32 0.143 0.32 0.32zM13.568 12.864c0 0.177-0.143 0.32-0.32 0.32s-0.32-0.143-0.32-0.32c0-0.177 0.143-0.32 0.32-0.32s0.32 0.143 0.32 0.32zM13.568 13.76c0 0.177-0.143 0.32-0.32 0.32s-0.32-0.143-0.32-0.32c0-0.177 0.143-0.32 0.32-0.32s0.32 0.143 0.32 0.32zM13.568 14.656c0 0.177-0.143 0.32-0.32 0.32s-0.32-0.143-0.32-0.32c0 0 0-0 0-0 0-0.177 0.143-0.32 0.32-0.32s0.32 0.143 0.32 0.32c0 0 0 0 0 0zM13.568 15.552c0 0.177-0.143 0.32-0.32 0.32s-0.32-0.143-0.32-0.32c0-0.177 0.143-0.32 0.32-0.32s0.32 0.143 0.32 0.32zM14.464 3.008c0 0.177-0.143 0.32-0.32 0.32s-0.32-0.143-0.32-0.32c0-0.177 0.143-0.32 0.32-0.32s0.32 0.143 0.32 0.32zM14.464 3.904c0 0.177-0.143 0.32-0.32 0.32s-0.32-0.143-0.32-0.32c0-0.177 0.143-0.32 0.32-0.32s0.32 0.143 0.32 0.32zM14.464 4.8c0 0.177-0.143 0.32-0.32 0.32s-0.32-0.143-0.32-0.32c0-0.177 0.143-0.32 0.32-0.32s0.32 0.143 0.32 0.32zM14.464 5.696c0 0.177-0.143 0.32-0.32 0.32s-0.32-0.143-0.32-0.32c0-0.177 0.143-0.32 0.32-0.32s0.32 0.143 0.32 0.32zM14.464 6.592c0 0.177-0.143 0.32-0.32 0.32s-0.32-0.143-0.32-0.32c0-0.177 0.143-0.32 0.32-0.32s0.32 0.143 0.32 0.32zM14.464 7.488c0 0.177-0.143 0.32-0.32 0.32s-0.32-0.143-0.32-0.32c0-0.177 0.143-0.32 0.32-0.32s0.32 0.143 0.32 0.32zM14.464 8.384c0 0.177-0.143 0.32-0.32 0.32s-0.32-0.143-0.32-0.32c0-0.177 0.143-0.32 0.32-0.32s0.32 0.143 0.32 0.32zM14.464 9.28c0 0.177-0.143 0.32-0.32 0.32s-0.32-0.143-0.32-0.32c0-0.177 0.143-0.32 0.32-0.32s0.32 0.143 0.32 0.32zM14.464 10.176c0 0.177-0.143 0.32-0.32 0.32s-0.32-0.143-0.32-0.32c0-0.177 0.143-0.32 0.32-0.32s0.32 0.143 0.32 0.32zM14.464 11.072c0 0.177-0.143 0.32-0.32 0.32s-0.32-0.143-0.32-0.32c0-0.177 0.143-0.32 0.32-0.32s0.32 0.143 0.32 0.32zM14.464 11.968c0 0.177-0.143 0.32-0.32 0.32s-0.32-0.143-0.32-0.32c0-0.177 0.143-0.32 0.32-0.32s0.32 0.143 0.32 0.32zM14.464 12.864c0 0.177-0.143 0.32-0.32 0.32s-0.32-0.143-0.32-0.32c0-0.177 0.143-0.32 0.32-0.32s0.32 0.143 0.32 0.32zM14.464 13.76c0 0.177-0.143 0.32-0.32 0.32s-0.32-0.143-0.32-0.32c0-0.177 0.143-0.32 0.32-0.32s0.32 0.143 0.32 0.32zM14.464 14.656c0 0.177-0.143 0.32-0.32 0.32s-0.32-0.143-0.32-0.32c0 0 0-0 0-0 0-0.177 0.143-0.32 0.32-0.32s0.32 0.143 0.32 0.32c0 0 0 0 0 0zM14.464 15.552c0 0.177-0.143 0.32-0.32 0.32s-0.32-0.143-0.32-0.32c0-0.177 0.143-0.32 0.32-0.32s0.32 0.143 0.32 0.32zM14.464 16.448c0 0.177-0.143 0.32-0.32 0.32s-0.32-0.143-0.32-0.32c0-0.177 0.143-0.32 0.32-0.32s0.32 0.143 0.32 0.32zM14.464 17.344c0 0.177-0.143 0.32-0.32 0.32s-0.32-0.143-0.32-0.32c0-0.177 0.143-0.32 0.32-0.32s0.32 0.143 0.32 0.32zM15.36 3.008c0 0.177-0.143 0.32-0.32 0.32s-0.32-0.143-0.32-0.32c0-0.177 0.143-0.32 0.32-0.32s0.32 0.143 0.32 0.32zM15.36 3.904c0 0.177-0.143 0.32-0.32 0.32s-0.32-0.143-0.32-0.32c0-0.177 0.143-0.32 0.32-0.32s0.32 0.143 0.32 0.32zM15.36 4.8c0 0.177-0.143 0.32-0.32 0.32s-0.32-0.143-0.32-0.32c0-0.177 0.143-0.32 0.32-0.32s0.32 0.143 0.32 0.32zM15.36 5.696c0 0.177-0.143 0.32-0.32 0.32s-0.32-0.143-0.32-0.32c0-0.177 0.143-0.32 0.32-0.32s0.32 0.143 0.32 0.32zM15.36 6.592c0 0.177-0.143 0.32-0.32 0.32s-0.32-0.143-0.32-0.32c0-0.177 0.143-0.32 0.32-0.32s0.32 0.143 0.32 0.32zM15.36 7.488c0 0.177-0.143 0.32-0.32 0.32s-0.32-0.143-0.32-0.32c0-0.177 0.143-0.32 0.32-0.32s0.32 0.143 0.32 0.32zM15.36 8.384c0 0.177-0.143 0.32-0.32 0.32s-0.32-0.143-0.32-0.32c0-0.177 0.143-0.32 0.32-0.32s0.32 0.143 0.32 0.32zM15.36 9.28c0 0.177-0.143 0.32-0.32 0.32s-0.32-0.143-0.32-0.32c0-0.177 0.143-0.32 0.32-0.32s0.32 0.143 0.32 0.32zM15.36 10.176c0 0.177-0.143 0.32-0.32 0.32s-0.32-0.143-0.32-0.32c0-0.177 0.143-0.32 0.32-0.32s0.32 0.143 0.32 0.32zM15.36 11.072c0 0.177-0.143 0.32-0.32 0.32s-0.32-0.143-0.32-0.32c0-0.177 0.143-0.32 0.32-0.32s0.32 0.143 0.32 0.32zM15.36 11.968c0 0.177-0.143 0.32-0.32 0.32s-0.32-0.143-0.32-0.32c0-0.177 0.143-0.32 0.32-0.32s0.32 0.143 0.32 0.32zM15.36 12.864c0 0.177-0.143 0.32-0.32 0.32s-0.32-0.143-0.32-0.32c0-0.177 0.143-0.32 0.32-0.32s0.32 0.143 0.32 0.32zM15.36 13.76c0 0.177-0.143 0.32-0.32 0.32s-0.32-0.143-0.32-0.32c0-0.177 0.143-0.32 0.32-0.32s0.32 0.143 0.32 0.32zM15.36 14.656c0 0.177-0.143 0.32-0.32 0.32s-0.32-0.143-0.32-0.32c0 0 0-0 0-0 0-0.177 0.143-0.32 0.32-0.32s0.32 0.143 0.32 0.32c0 0 0 0 0 0zM15.36 15.552c0 0.177-0.143 0.32-0.32 0.32s-0.32-0.143-0.32-0.32c0-0.177 0.143-0.32 0.32-0.32s0.32 0.143 0.32 0.32zM15.36 16.448c0 0.177-0.143 0.32-0.32 0.32s-0.32-0.143-0.32-0.32c0-0.177 0.143-0.32 0.32-0.32s0.32 0.143 0.32 0.32zM15.36 17.344c0 0.177-0.143 0.32-0.32 0.32s-0.32-0.143-0.32-0.32c0-0.177 0.143-0.32 0.32-0.32s0.32 0.143 0.32 0.32zM16.256 5.696c0 0.177-0.143 0.32-0.32 0.32s-0.32-0.143-0.32-0.32c0-0.177 0.143-0.32 0.32-0.32s0.32 0.143 0.32 0.32zM16.256 6.592c0 0.177-0.143 0.32-0.32 0.32s-0.32-0.143-0.32-0.32c0-0.177 0.143-0.32 0.32-0.32s0.32 0.143 0.32 0.32zM16.256 7.488c0 0.177-0.143 0.32-0.32 0.32s-0.32-0.143-0.32-0.32c0-0.177 0.143-0.32 0.32-0.32s0.32 0.143 0.32 0.32zM16.256 8.384c0 0.177-0.143 0.32-0.32 0.32s-0.32-0.143-0.32-0.32c0-0.177 0.143-0.32 0.32-0.32s0.32 0.143 0.32 0.32zM16.256 9.28c0 0.177-0.143 0.32-0.32 0.32s-0.32-0.143-0.32-0.32c0-0.177 0.143-0.32 0.32-0.32s0.32 0.143 0.32 0.32zM16.256 10.176c0 0.177-0.143 0.32-0.32 0.32s-0.32-0.143-0.32-0.32c0-0.177 0.143-0.32 0.32-0.32s0.32 0.143 0.32 0.32zM16.256 11.072c0 0.177-0.143 0.32-0.32 0.32s-0.32-0.143-0.32-0.32c0-0.177 0.143-0.32 0.32-0.32s0.32 0.143 0.32 0.32zM16.256 11.968c0 0.177-0.143 0.32-0.32 0.32s-0.32-0.143-0.32-0.32c0-0.177 0.143-0.32 0.32-0.32s0.32 0.143 0.32 0.32zM16.256 12.864c0 0.177-0.143 0.32-0.32 0.32s-0.32-0.143-0.32-0.32c0-0.177 0.143-0.32 0.32-0.32s0.32 0.143 0.32 0.32zM16.256 13.76c0 0.177-0.143 0.32-0.32 0.32s-0.32-0.143-0.32-0.32c0-0.177 0.143-0.32 0.32-0.32s0.32 0.143 0.32 0.32zM16.256 14.656c0 0.177-0.143 0.32-0.32 0.32s-0.32-0.143-0.32-0.32c0 0 0-0 0-0 0-0.177 0.143-0.32 0.32-0.32s0.32 0.143 0.32 0.32c0 0 0 0 0 0zM16.256 15.552c0 0.177-0.143 0.32-0.32 0.32s-0.32-0.143-0.32-0.32c0-0.177 0.143-0.32 0.32-0.32s0.32 0.143 0.32 0.32zM16.256 16.448c0 0.177-0.143 0.32-0.32 0.32s-0.32-0.143-0.32-0.32c0-0.177 0.143-0.32 0.32-0.32s0.32 0.143 0.32 0.32zM16.256 17.344c0 0.177-0.143 0.32-0.32 0.32s-0.32-0.143-0.32-0.32c0-0.177 0.143-0.32 0.32-0.32s0.32 0.143 0.32 0.32zM16.256 18.24c0 0.177-0.143 0.32-0.32 0.32s-0.32-0.143-0.32-0.32c0-0.177 0.143-0.32 0.32-0.32s0.32 0.143 0.32 0.32zM17.152 5.696c0 0.177-0.143 0.32-0.32 0.32s-0.32-0.143-0.32-0.32c0-0.177 0.143-0.32 0.32-0.32s0.32 0.143 0.32 0.32zM17.152 6.592c0 0.177-0.143 0.32-0.32 0.32s-0.32-0.143-0.32-0.32c0-0.177 0.143-0.32 0.32-0.32s0.32 0.143 0.32 0.32zM17.152 7.488c0 0.177-0.143 0.32-0.32 0.32s-0.32-0.143-0.32-0.32c0-0.177 0.143-0.32 0.32-0.32s0.32 0.143 0.32 0.32zM17.152 8.384c0 0.177-0.143 0.32-0.32 0.32s-0.32-0.143-0.32-0.32c0-0.177 0.143-0.32 0.32-0.32s0.32 0.143 0.32 0.32zM17.152 9.28c0 0.177-0.143 0.32-0.32 0.32s-0.32-0.143-0.32-0.32c0-0.177 0.143-0.32 0.32-0.32s0.32 0.143 0.32 0.32zM17.152 10.176c0 0.177-0.143 0.32-0.32 0.32s-0.32-0.143-0.32-0.32c0-0.177 0.143-0.32 0.32-0.32s0.32 0.143 0.32 0.32zM17.152 11.072c0 0.177-0.143 0.32-0.32 0.32s-0.32-0.143-0.32-0.32c0-0.177 0.143-0.32 0.32-0.32s0.32 0.143 0.32 0.32zM17.152 11.968c0 0.177-0.143 0.32-0.32 0.32s-0.32-0.143-0.32-0.32c0-0.177 0.143-0.32 0.32-0.32s0.32 0.143 0.32 0.32zM17.152 12.864c0 0.177-0.143 0.32-0.32 0.32s-0.32-0.143-0.32-0.32c0-0.177 0.143-0.32 0.32-0.32s0.32 0.143 0.32 0.32zM17.152 13.76c0 0.177-0.143 0.32-0.32 0.32s-0.32-0.143-0.32-0.32c0-0.177 0.143-0.32 0.32-0.32s0.32 0.143 0.32 0.32zM17.152 14.656c0 0.177-0.143 0.32-0.32 0.32s-0.32-0.143-0.32-0.32c0 0 0-0 0-0 0-0.177 0.143-0.32 0.32-0.32s0.32 0.143 0.32 0.32c0 0 0 0 0 0zM17.152 15.552c0 0.177-0.143 0.32-0.32 0.32s-0.32-0.143-0.32-0.32c0-0.177 0.143-0.32 0.32-0.32s0.32 0.143 0.32 0.32zM17.152 16.448c0 0.177-0.143 0.32-0.32 0.32s-0.32-0.143-0.32-0.32c0-0.177 0.143-0.32 0.32-0.32s0.32 0.143 0.32 0.32zM17.152 17.344c0 0.177-0.143 0.32-0.32 0.32s-0.32-0.143-0.32-0.32c0-0.177 0.143-0.32 0.32-0.32s0.32 0.143 0.32 0.32zM17.152 18.24c0 0.177-0.143 0.32-0.32 0.32s-0.32-0.143-0.32-0.32c0-0.177 0.143-0.32 0.32-0.32s0.32 0.143 0.32 0.32zM17.152 19.136c0 0.177-0.143 0.32-0.32 0.32s-0.32-0.143-0.32-0.32c0-0.177 0.143-0.32 0.32-0.32s0.32 0.143 0.32 0.32zM18.048 5.696c0 0.177-0.143 0.32-0.32 0.32s-0.32-0.143-0.32-0.32c0-0.177 0.143-0.32 0.32-0.32s0.32 0.143 0.32 0.32zM18.048 6.592c0 0.177-0.143 0.32-0.32 0.32s-0.32-0.143-0.32-0.32c0-0.177 0.143-0.32 0.32-0.32s0.32 0.143 0.32 0.32zM18.048 7.488c0 0.177-0.143 0.32-0.32 0.32s-0.32-0.143-0.32-0.32c0-0.177 0.143-0.32 0.32-0.32s0.32 0.143 0.32 0.32zM18.048 8.384c0 0.177-0.143 0.32-0.32 0.32s-0.32-0.143-0.32-0.32c0-0.177 0.143-0.32 0.32-0.32s0.32 0.143 0.32 0.32zM18.048 9.28c0 0.177-0.143 0.32-0.32 0.32s-0.32-0.143-0.32-0.32c0-0.177 0.143-0.32 0.32-0.32s0.32 0.143 0.32 0.32zM18.048 10.176c0 0.177-0.143 0.32-0.32 0.32s-0.32-0.143-0.32-0.32c0-0.177 0.143-0.32 0.32-0.32s0.32 0.143 0.32 0.32zM18.048 11.072c0 0.177-0.143 0.32-0.32 0.32s-0.32-0.143-0.32-0.32c0-0.177 0.143-0.32 0.32-0.32s0.32 0.143 0.32 0.32zM18.048 11.968c0 0.177-0.143 0.32-0.32 0.32s-0.32-0.143-0.32-0.32c0-0.177 0.143-0.32 0.32-0.32s0.32 0.143 0.32 0.32zM18.048 12.864c0 0.177-0.143 0.32-0.32 0.32s-0.32-0.143-0.32-0.32c0-0.177 0.143-0.32 0.32-0.32s0.32 0.143 0.32 0.32zM18.048 13.76c0 0.177-0.143 0.32-0.32 0.32s-0.32-0.143-0.32-0.32c0-0.177 0.143-0.32 0.32-0.32s0.32 0.143 0.32 0.32zM18.048 14.656c0 0.177-0.143 0.32-0.32 0.32s-0.32-0.143-0.32-0.32c0 0 0-0 0-0 0-0.177 0.143-0.32 0.32-0.32s0.32 0.143 0.32 0.32c0 0 0 0 0 0zM18.048 15.552c0 0.177-0.143 0.32-0.32 0.32s-0.32-0.143-0.32-0.32c0-0.177 0.143-0.32 0.32-0.32s0.32 0.143 0.32 0.32zM18.048 16.448c0 0.177-0.143 0.32-0.32 0.32s-0.32-0.143-0.32-0.32c0-0.177 0.143-0.32 0.32-0.32s0.32 0.143 0.32 0.32zM18.048 17.344c0 0.177-0.143 0.32-0.32 0.32s-0.32-0.143-0.32-0.32c0-0.177 0.143-0.32 0.32-0.32s0.32 0.143 0.32 0.32zM18.048 18.24c0 0.177-0.143 0.32-0.32 0.32s-0.32-0.143-0.32-0.32c0-0.177 0.143-0.32 0.32-0.32s0.32 0.143 0.32 0.32zM18.048 19.136c0 0.177-0.143 0.32-0.32 0.32s-0.32-0.143-0.32-0.32c0-0.177 0.143-0.32 0.32-0.32s0.32 0.143 0.32 0.32zM18.048 20.032c0 0.177-0.143 0.32-0.32 0.32s-0.32-0.143-0.32-0.32c0-0.177 0.143-0.32 0.32-0.32s0.32 0.143 0.32 0.32zM18.944 2.112c0 0.177-0.143 0.32-0.32 0.32s-0.32-0.143-0.32-0.32c0-0.177 0.143-0.32 0.32-0.32s0.32 0.143 0.32 0.32zM18.944 3.008c0 0.177-0.143 0.32-0.32 0.32s-0.32-0.143-0.32-0.32c0-0.177 0.143-0.32 0.32-0.32s0.32 0.143 0.32 0.32zM18.944 3.904c0 0.177-0.143 0.32-0.32 0.32s-0.32-0.143-0.32-0.32c0-0.177 0.143-0.32 0.32-0.32s0.32 0.143 0.32 0.32zM18.944 4.8c0 0.177-0.143 0.32-0.32 0.32s-0.32-0.143-0.32-0.32c0-0.177 0.143-0.32 0.32-0.32s0.32 0.143 0.32 0.32zM18.944 5.696c0 0.177-0.143 0.32-0.32 0.32s-0.32-0.143-0.32-0.32c0-0.177 0.143-0.32 0.32-0.32s0.32 0.143 0.32 0.32zM18.944 6.592c0 0.177-0.143 0.32-0.32 0.32s-0.32-0.143-0.32-0.32c0-0.177 0.143-0.32 0.32-0.32s0.32 0.143 0.32 0.32zM18.944 7.488c0 0.177-0.143 0.32-0.32 0.32s-0.32-0.143-0.32-0.32c0-0.177 0.143-0.32 0.32-0.32s0.32 0.143 0.32 0.32zM18.944 8.384c0 0.177-0.143 0.32-0.32 0.32s-0.32-0.143-0.32-0.32c0-0.177 0.143-0.32 0.32-0.32s0.32 0.143 0.32 0.32zM18.944 9.28c0 0.177-0.143 0.32-0.32 0.32s-0.32-0.143-0.32-0.32c0-0.177 0.143-0.32 0.32-0.32s0.32 0.143 0.32 0.32zM18.944 10.176c0 0.177-0.143 0.32-0.32 0.32s-0.32-0.143-0.32-0.32c0-0.177 0.143-0.32 0.32-0.32s0.32 0.143 0.32 0.32zM18.944 11.072c0 0.177-0.143 0.32-0.32 0.32s-0.32-0.143-0.32-0.32c0-0.177 0.143-0.32 0.32-0.32s0.32 0.143 0.32 0.32zM18.944 11.968c0 0.177-0.143 0.32-0.32 0.32s-0.32-0.143-0.32-0.32c0-0.177 0.143-0.32 0.32-0.32s0.32 0.143 0.32 0.32zM18.944 12.864c0 0.177-0.143 0.32-0.32 0.32s-0.32-0.143-0.32-0.32c0-0.177 0.143-0.32 0.32-0.32s0.32 0.143 0.32 0.32zM18.944 13.76c0 0.177-0.143 0.32-0.32 0.32s-0.32-0.143-0.32-0.32c0-0.177 0.143-0.32 0.32-0.32s0.32 0.143 0.32 0.32zM18.944 14.656c0 0.177-0.143 0.32-0.32 0.32s-0.32-0.143-0.32-0.32c0 0 0-0 0-0 0-0.177 0.143-0.32 0.32-0.32s0.32 0.143 0.32 0.32c0 0 0 0 0 0zM18.944 15.552c0 0.177-0.143 0.32-0.32 0.32s-0.32-0.143-0.32-0.32c0-0.177 0.143-0.32 0.32-0.32s0.32 0.143 0.32 0.32zM18.944 16.448c0 0.177-0.143 0.32-0.32 0.32s-0.32-0.143-0.32-0.32c0-0.177 0.143-0.32 0.32-0.32s0.32 0.143 0.32 0.32zM18.944 17.344c0 0.177-0.143 0.32-0.32 0.32s-0.32-0.143-0.32-0.32c0-0.177 0.143-0.32 0.32-0.32s0.32 0.143 0.32 0.32zM18.944 18.24c0 0.177-0.143 0.32-0.32 0.32s-0.32-0.143-0.32-0.32c0-0.177 0.143-0.32 0.32-0.32s0.32 0.143 0.32 0.32zM18.944 19.136c0 0.177-0.143 0.32-0.32 0.32s-0.32-0.143-0.32-0.32c0-0.177 0.143-0.32 0.32-0.32s0.32 0.143 0.32 0.32zM18.944 20.032c0 0.177-0.143 0.32-0.32 0.32s-0.32-0.143-0.32-0.32c0-0.177 0.143-0.32 0.32-0.32s0.32 0.143 0.32 0.32zM18.944 21.824c0 0.177-0.143 0.32-0.32 0.32s-0.32-0.143-0.32-0.32c0-0.177 0.143-0.32 0.32-0.32s0.32 0.143 0.32 0.32zM19.84 3.008c0 0.177-0.143 0.32-0.32 0.32s-0.32-0.143-0.32-0.32c0-0.177 0.143-0.32 0.32-0.32s0.32 0.143 0.32 0.32zM19.84 3.904c0 0.177-0.143 0.32-0.32 0.32s-0.32-0.143-0.32-0.32c0-0.177 0.143-0.32 0.32-0.32s0.32 0.143 0.32 0.32zM19.84 4.8c0 0.177-0.143 0.32-0.32 0.32s-0.32-0.143-0.32-0.32c0-0.177 0.143-0.32 0.32-0.32s0.32 0.143 0.32 0.32zM19.84 5.696c0 0.177-0.143 0.32-0.32 0.32s-0.32-0.143-0.32-0.32c0-0.177 0.143-0.32 0.32-0.32s0.32 0.143 0.32 0.32zM19.84 6.592c0 0.177-0.143 0.32-0.32 0.32s-0.32-0.143-0.32-0.32c0-0.177 0.143-0.32 0.32-0.32s0.32 0.143 0.32 0.32zM19.84 7.488c0 0.177-0.143 0.32-0.32 0.32s-0.32-0.143-0.32-0.32c0-0.177 0.143-0.32 0.32-0.32s0.32 0.143 0.32 0.32zM19.84 8.384c0 0.177-0.143 0.32-0.32 0.32s-0.32-0.143-0.32-0.32c0-0.177 0.143-0.32 0.32-0.32s0.32 0.143 0.32 0.32zM19.84 9.28c0 0.177-0.143 0.32-0.32 0.32s-0.32-0.143-0.32-0.32c0-0.177 0.143-0.32 0.32-0.32s0.32 0.143 0.32 0.32zM19.84 10.176c0 0.177-0.143 0.32-0.32 0.32s-0.32-0.143-0.32-0.32c0-0.177 0.143-0.32 0.32-0.32s0.32 0.143 0.32 0.32zM19.84 11.072c0 0.177-0.143 0.32-0.32 0.32s-0.32-0.143-0.32-0.32c0-0.177 0.143-0.32 0.32-0.32s0.32 0.143 0.32 0.32zM19.84 11.968c0 0.177-0.143 0.32-0.32 0.32s-0.32-0.143-0.32-0.32c0-0.177 0.143-0.32 0.32-0.32s0.32 0.143 0.32 0.32zM19.84 12.864c0 0.177-0.143 0.32-0.32 0.32s-0.32-0.143-0.32-0.32c0-0.177 0.143-0.32 0.32-0.32s0.32 0.143 0.32 0.32zM19.84 13.76c0 0.177-0.143 0.32-0.32 0.32s-0.32-0.143-0.32-0.32c0-0.177 0.143-0.32 0.32-0.32s0.32 0.143 0.32 0.32zM19.84 14.656c0 0.177-0.143 0.32-0.32 0.32s-0.32-0.143-0.32-0.32c0 0 0-0 0-0 0-0.177 0.143-0.32 0.32-0.32s0.32 0.143 0.32 0.32c0 0 0 0 0 0zM19.84 15.552c0 0.177-0.143 0.32-0.32 0.32s-0.32-0.143-0.32-0.32c0-0.177 0.143-0.32 0.32-0.32s0.32 0.143 0.32 0.32zM19.84 16.448c0 0.177-0.143 0.32-0.32 0.32s-0.32-0.143-0.32-0.32c0-0.177 0.143-0.32 0.32-0.32s0.32 0.143 0.32 0.32zM19.84 17.344c0 0.177-0.143 0.32-0.32 0.32s-0.32-0.143-0.32-0.32c0-0.177 0.143-0.32 0.32-0.32s0.32 0.143 0.32 0.32zM19.84 18.24c0 0.177-0.143 0.32-0.32 0.32s-0.32-0.143-0.32-0.32c0-0.177 0.143-0.32 0.32-0.32s0.32 0.143 0.32 0.32zM19.84 19.136c0 0.177-0.143 0.32-0.32 0.32s-0.32-0.143-0.32-0.32c0-0.177 0.143-0.32 0.32-0.32s0.32 0.143 0.32 0.32zM19.84 20.032c0 0.177-0.143 0.32-0.32 0.32s-0.32-0.143-0.32-0.32c0-0.177 0.143-0.32 0.32-0.32s0.32 0.143 0.32 0.32zM19.84 21.824c0 0.177-0.143 0.32-0.32 0.32s-0.32-0.143-0.32-0.32c0-0.177 0.143-0.32 0.32-0.32s0.32 0.143 0.32 0.32zM19.84 22.72c0 0.177-0.143 0.32-0.32 0.32s-0.32-0.143-0.32-0.32c0-0.177 0.143-0.32 0.32-0.32s0.32 0.143 0.32 0.32zM19.84 23.616c0 0.177-0.143 0.32-0.32 0.32s-0.32-0.143-0.32-0.32c0-0.177 0.143-0.32 0.32-0.32s0.32 0.143 0.32 0.32zM20.736 4.8c0 0.177-0.143 0.32-0.32 0.32s-0.32-0.143-0.32-0.32c0-0.177 0.143-0.32 0.32-0.32s0.32 0.143 0.32 0.32zM20.736 5.696c0 0.177-0.143 0.32-0.32 0.32s-0.32-0.143-0.32-0.32c0-0.177 0.143-0.32 0.32-0.32s0.32 0.143 0.32 0.32zM20.736 6.592c0 0.177-0.143 0.32-0.32 0.32s-0.32-0.143-0.32-0.32c0-0.177 0.143-0.32 0.32-0.32s0.32 0.143 0.32 0.32zM20.736 7.488c0 0.177-0.143 0.32-0.32 0.32s-0.32-0.143-0.32-0.32c0-0.177 0.143-0.32 0.32-0.32s0.32 0.143 0.32 0.32zM20.736 8.384c0 0.177-0.143 0.32-0.32 0.32s-0.32-0.143-0.32-0.32c0-0.177 0.143-0.32 0.32-0.32s0.32 0.143 0.32 0.32zM20.736 9.28c0 0.177-0.143 0.32-0.32 0.32s-0.32-0.143-0.32-0.32c0-0.177 0.143-0.32 0.32-0.32s0.32 0.143 0.32 0.32zM20.736 10.176c0 0.177-0.143 0.32-0.32 0.32s-0.32-0.143-0.32-0.32c0-0.177 0.143-0.32 0.32-0.32s0.32 0.143 0.32 0.32zM20.736 11.072c0 0.177-0.143 0.32-0.32 0.32s-0.32-0.143-0.32-0.32c0-0.177 0.143-0.32 0.32-0.32s0.32 0.143 0.32 0.32zM20.736 11.968c0 0.177-0.143 0.32-0.32 0.32s-0.32-0.143-0.32-0.32c0-0.177 0.143-0.32 0.32-0.32s0.32 0.143 0.32 0.32zM20.736 12.864c0 0.177-0.143 0.32-0.32 0.32s-0.32-0.143-0.32-0.32c0-0.177 0.143-0.32 0.32-0.32s0.32 0.143 0.32 0.32zM20.736 13.76c0 0.177-0.143 0.32-0.32 0.32s-0.32-0.143-0.32-0.32c0-0.177 0.143-0.32 0.32-0.32s0.32 0.143 0.32 0.32zM20.736 14.656c0 0.177-0.143 0.32-0.32 0.32s-0.32-0.143-0.32-0.32c0 0 0-0 0-0 0-0.177 0.143-0.32 0.32-0.32s0.32 0.143 0.32 0.32c0 0 0 0 0 0zM20.736 15.552c0 0.177-0.143 0.32-0.32 0.32s-0.32-0.143-0.32-0.32c0-0.177 0.143-0.32 0.32-0.32s0.32 0.143 0.32 0.32zM20.736 16.448c0 0.177-0.143 0.32-0.32 0.32s-0.32-0.143-0.32-0.32c0-0.177 0.143-0.32 0.32-0.32s0.32 0.143 0.32 0.32zM20.736 17.344c0 0.177-0.143 0.32-0.32 0.32s-0.32-0.143-0.32-0.32c0-0.177 0.143-0.32 0.32-0.32s0.32 0.143 0.32 0.32zM20.736 18.24c0 0.177-0.143 0.32-0.32 0.32s-0.32-0.143-0.32-0.32c0-0.177 0.143-0.32 0.32-0.32s0.32 0.143 0.32 0.32zM20.736 19.136c0 0.177-0.143 0.32-0.32 0.32s-0.32-0.143-0.32-0.32c0-0.177 0.143-0.32 0.32-0.32s0.32 0.143 0.32 0.32zM20.736 20.032c0 0.177-0.143 0.32-0.32 0.32s-0.32-0.143-0.32-0.32c0-0.177 0.143-0.32 0.32-0.32s0.32 0.143 0.32 0.32zM20.736 21.824c0 0.177-0.143 0.32-0.32 0.32s-0.32-0.143-0.32-0.32c0-0.177 0.143-0.32 0.32-0.32s0.32 0.143 0.32 0.32zM20.736 22.72c0 0.177-0.143 0.32-0.32 0.32s-0.32-0.143-0.32-0.32c0-0.177 0.143-0.32 0.32-0.32s0.32 0.143 0.32 0.32zM21.632 7.488c0 0.177-0.143 0.32-0.32 0.32s-0.32-0.143-0.32-0.32c0-0.177 0.143-0.32 0.32-0.32s0.32 0.143 0.32 0.32zM21.632 8.384c0 0.177-0.143 0.32-0.32 0.32s-0.32-0.143-0.32-0.32c0-0.177 0.143-0.32 0.32-0.32s0.32 0.143 0.32 0.32zM21.632 9.28c0 0.177-0.143 0.32-0.32 0.32s-0.32-0.143-0.32-0.32c0-0.177 0.143-0.32 0.32-0.32s0.32 0.143 0.32 0.32zM21.632 10.176c0 0.177-0.143 0.32-0.32 0.32s-0.32-0.143-0.32-0.32c0-0.177 0.143-0.32 0.32-0.32s0.32 0.143 0.32 0.32zM21.632 11.072c0 0.177-0.143 0.32-0.32 0.32s-0.32-0.143-0.32-0.32c0-0.177 0.143-0.32 0.32-0.32s0.32 0.143 0.32 0.32zM21.632 11.968c0 0.177-0.143 0.32-0.32 0.32s-0.32-0.143-0.32-0.32c0-0.177 0.143-0.32 0.32-0.32s0.32 0.143 0.32 0.32zM21.632 12.864c0 0.177-0.143 0.32-0.32 0.32s-0.32-0.143-0.32-0.32c0-0.177 0.143-0.32 0.32-0.32s0.32 0.143 0.32 0.32zM21.632 13.76c0 0.177-0.143 0.32-0.32 0.32s-0.32-0.143-0.32-0.32c0-0.177 0.143-0.32 0.32-0.32s0.32 0.143 0.32 0.32zM21.632 14.656c0 0.177-0.143 0.32-0.32 0.32s-0.32-0.143-0.32-0.32c0 0 0-0 0-0 0-0.177 0.143-0.32 0.32-0.32s0.32 0.143 0.32 0.32c0 0 0 0 0 0zM21.632 15.552c0 0.177-0.143 0.32-0.32 0.32s-0.32-0.143-0.32-0.32c0-0.177 0.143-0.32 0.32-0.32s0.32 0.143 0.32 0.32zM21.632 16.448c0 0.177-0.143 0.32-0.32 0.32s-0.32-0.143-0.32-0.32c0-0.177 0.143-0.32 0.32-0.32s0.32 0.143 0.32 0.32zM21.632 17.344c0 0.177-0.143 0.32-0.32 0.32s-0.32-0.143-0.32-0.32c0-0.177 0.143-0.32 0.32-0.32s0.32 0.143 0.32 0.32zM21.632 18.24c0 0.177-0.143 0.32-0.32 0.32s-0.32-0.143-0.32-0.32c0-0.177 0.143-0.32 0.32-0.32s0.32 0.143 0.32 0.32zM21.632 19.136c0 0.177-0.143 0.32-0.32 0.32s-0.32-0.143-0.32-0.32c0-0.177 0.143-0.32 0.32-0.32s0.32 0.143 0.32 0.32zM21.632 20.032c0 0.177-0.143 0.32-0.32 0.32s-0.32-0.143-0.32-0.32c0-0.177 0.143-0.32 0.32-0.32s0.32 0.143 0.32 0.32zM22.528 8.384c0 0.177-0.143 0.32-0.32 0.32s-0.32-0.143-0.32-0.32c0-0.177 0.143-0.32 0.32-0.32s0.32 0.143 0.32 0.32zM22.528 9.28c0 0.177-0.143 0.32-0.32 0.32s-0.32-0.143-0.32-0.32c0-0.177 0.143-0.32 0.32-0.32s0.32 0.143 0.32 0.32zM22.528 10.176c0 0.177-0.143 0.32-0.32 0.32s-0.32-0.143-0.32-0.32c0-0.177 0.143-0.32 0.32-0.32s0.32 0.143 0.32 0.32zM22.528 11.072c0 0.177-0.143 0.32-0.32 0.32s-0.32-0.143-0.32-0.32c0-0.177 0.143-0.32 0.32-0.32s0.32 0.143 0.32 0.32zM22.528 11.968c0 0.177-0.143 0.32-0.32 0.32s-0.32-0.143-0.32-0.32c0-0.177 0.143-0.32 0.32-0.32s0.32 0.143 0.32 0.32zM22.528 12.864c0 0.177-0.143 0.32-0.32 0.32s-0.32-0.143-0.32-0.32c0-0.177 0.143-0.32 0.32-0.32s0.32 0.143 0.32 0.32zM22.528 13.76c0 0.177-0.143 0.32-0.32 0.32s-0.32-0.143-0.32-0.32c0-0.177 0.143-0.32 0.32-0.32s0.32 0.143 0.32 0.32zM22.528 14.656c0 0.177-0.143 0.32-0.32 0.32s-0.32-0.143-0.32-0.32c0 0 0-0 0-0 0-0.177 0.143-0.32 0.32-0.32s0.32 0.143 0.32 0.32c0 0 0 0 0 0zM22.528 15.552c0 0.177-0.143 0.32-0.32 0.32s-0.32-0.143-0.32-0.32c0-0.177 0.143-0.32 0.32-0.32s0.32 0.143 0.32 0.32zM22.528 16.448c0 0.177-0.143 0.32-0.32 0.32s-0.32-0.143-0.32-0.32c0-0.177 0.143-0.32 0.32-0.32s0.32 0.143 0.32 0.32zM22.528 17.344c0 0.177-0.143 0.32-0.32 0.32s-0.32-0.143-0.32-0.32c0-0.177 0.143-0.32 0.32-0.32s0.32 0.143 0.32 0.32zM22.528 18.24c0 0.177-0.143 0.32-0.32 0.32s-0.32-0.143-0.32-0.32c0-0.177 0.143-0.32 0.32-0.32s0.32 0.143 0.32 0.32zM22.528 19.136c0 0.177-0.143 0.32-0.32 0.32s-0.32-0.143-0.32-0.32c0-0.177 0.143-0.32 0.32-0.32s0.32 0.143 0.32 0.32zM23.424 10.176c0 0.177-0.143 0.32-0.32 0.32s-0.32-0.143-0.32-0.32c0-0.177 0.143-0.32 0.32-0.32s0.32 0.143 0.32 0.32zM23.424 11.072c0 0.177-0.143 0.32-0.32 0.32s-0.32-0.143-0.32-0.32c0-0.177 0.143-0.32 0.32-0.32s0.32 0.143 0.32 0.32zM23.424 11.968c0 0.177-0.143 0.32-0.32 0.32s-0.32-0.143-0.32-0.32c0-0.177 0.143-0.32 0.32-0.32s0.32 0.143 0.32 0.32zM23.424 12.864c0 0.177-0.143 0.32-0.32 0.32s-0.32-0.143-0.32-0.32c0-0.177 0.143-0.32 0.32-0.32s0.32 0.143 0.32 0.32zM23.424 13.76c0 0.177-0.143 0.32-0.32 0.32s-0.32-0.143-0.32-0.32c0-0.177 0.143-0.32 0.32-0.32s0.32 0.143 0.32 0.32zM23.424 14.656c0 0.177-0.143 0.32-0.32 0.32s-0.32-0.143-0.32-0.32c0 0 0-0 0-0 0-0.177 0.143-0.32 0.32-0.32s0.32 0.143 0.32 0.32c0 0 0 0 0 0zM23.424 15.552c0 0.177-0.143 0.32-0.32 0.32s-0.32-0.143-0.32-0.32c0-0.177 0.143-0.32 0.32-0.32s0.32 0.143 0.32 0.32zM23.424 16.448c0 0.177-0.143 0.32-0.32 0.32s-0.32-0.143-0.32-0.32c0-0.177 0.143-0.32 0.32-0.32s0.32 0.143 0.32 0.32zM23.424 17.344c0 0.177-0.143 0.32-0.32 0.32s-0.32-0.143-0.32-0.32c0-0.177 0.143-0.32 0.32-0.32s0.32 0.143 0.32 0.32zM24.32 11.072c0 0.177-0.143 0.32-0.32 0.32s-0.32-0.143-0.32-0.32c0-0.177 0.143-0.32 0.32-0.32s0.32 0.143 0.32 0.32zM24.32 11.968c0 0.177-0.143 0.32-0.32 0.32s-0.32-0.143-0.32-0.32c0-0.177 0.143-0.32 0.32-0.32s0.32 0.143 0.32 0.32zM24.32 12.864c0 0.177-0.143 0.32-0.32 0.32s-0.32-0.143-0.32-0.32c0-0.177 0.143-0.32 0.32-0.32s0.32 0.143 0.32 0.32zM24.32 13.76c0 0.177-0.143 0.32-0.32 0.32s-0.32-0.143-0.32-0.32c0-0.177 0.143-0.32 0.32-0.32s0.32 0.143 0.32 0.32zM24.32 14.656c0 0.177-0.143 0.32-0.32 0.32s-0.32-0.143-0.32-0.32c0 0 0-0 0-0 0-0.177 0.143-0.32 0.32-0.32s0.32 0.143 0.32 0.32c0 0 0 0 0 0zM24.32 15.552c0 0.177-0.143 0.32-0.32 0.32s-0.32-0.143-0.32-0.32c0-0.177 0.143-0.32 0.32-0.32s0.32 0.143 0.32 0.32zM24.32 16.448c0 0.177-0.143 0.32-0.32 0.32s-0.32-0.143-0.32-0.32c0-0.177 0.143-0.32 0.32-0.32s0.32 0.143 0.32 0.32z"></path>
</symbol>
</svg>
